<svg xmlns="http://www.w3.org/2000/svg" viewBox="0 0 440 460">

<g transform="translate(150,95)">
<rect x="-6" y="-10" width="12" height="34" rx="6" fill="#3a7bd5"></rect>
<path d="M-6 -10 L0 -34 L6 -10 Z" fill="#e04b4b"></path>
<path d="M-6 20 l-10 16 l10 -4 Z" fill="#3a7bd5"></path>
<path d="M6 20 l10 16 l-10 -4 Z" fill="#3a7bd5"></path>
<circle cx="0" cy="-4" r="5" fill="#bfe3f7"></circle>
</g>
<circle cx="235" cy="80" r="9" fill="none" stroke="#3fa9dc" stroke-width="3"></circle>
<circle cx="248" cy="76" r="5" fill="none" stroke="#3fa9dc" stroke-width="2"></circle>
<g fill="#dfeef7"><ellipse cx="70" cy="150" rx="34" ry="18"></ellipse><ellipse cx="95" cy="140" rx="26" ry="15"></ellipse></g>
<g fill="#dfeef7"><ellipse cx="360" cy="150" rx="34" ry="18"></ellipse><ellipse cx="335" cy="140" rx="26" ry="15"></ellipse></g>
<path d="M110 200 A110 110 0 0 1 330 200" fill="none" stroke="#e8434f" stroke-width="9"></path>
<path d="M120 200 A100 100 0 0 1 320 200" fill="none" stroke="#f4a71e" stroke-width="9"></path>
<path d="M130 200 A90 90 0 0 1 310 200" fill="none" stroke="#f7d417" stroke-width="9"></path>
<path d="M140 200 A80 80 0 0 1 300 200" fill="none" stroke="#7ec850" stroke-width="9"></path>
<path d="M150 200 A70 70 0 0 1 290 200" fill="none" stroke="#3fa9dc" stroke-width="9"></path>
<g transform="translate(220,175)">
<rect x="-60" y="10" width="120" height="55" fill="#f7d94a"></rect>
<path d="M-60 10 L-40 -20 L-20 10 Z" fill="#3a7bd5"></path>
<path d="M60 10 L40 -20 L20 10 Z" fill="#3a7bd5"></path>
<path d="M-20 10 L0 -30 L20 10 Z" fill="#f4a71e"></path>
<rect x="0" y="-45" width="4" height="20" fill="#333"></rect>
<path d="M4 -45 L20 -38 L4 -32 Z" fill="#e04b4b"></path>
<rect x="-45" y="0" width="8" height="14" fill="#3a7bd5"></rect>
<rect x="37" y="0" width="8" height="14" fill="#3a7bd5"></rect>
<rect x="-8" y="20" width="16" height="24" rx="8" fill="#7a4a2a"></rect>
<circle cx="-30" cy="30" r="6" fill="#3a7bd5"></circle>
<circle cx="30" cy="30" r="6" fill="#3a7bd5"></circle>
</g>
<path d="M20 260 C90 230 150 230 220 250 C290 230 350 230 420 255 L420 285 C350 265 290 265 220 285 C150 265 90 265 20 290 Z" fill="#7ec850"></path>
<path d="M20 290 C90 265 150 265 220 285 C290 265 350 265 420 285 L420 310 C350 295 290 295 220 310 C150 295 90 295 20 315 Z" fill="#5fae3e"></path>
<path d="M30 235 C100 255 150 260 220 258 C290 260 340 255 410 235" fill="none" stroke="#5fae3e" stroke-width="3"></path>
<path d="M40 300 q10 -10 20 0 q10 -10 20 0 q10 -10 20 0" fill="none" stroke="#3a7bd5" stroke-width="4"></path>
<path d="M40 312 q10 -10 20 0 q10 -10 20 0 q10 -10 20 0" fill="none" stroke="#3a7bd5" stroke-width="4"></path>
<text x="220" y="365" font-family="Georgia, &#39;Times New Roman&#39;, serif" font-weight="700" font-size="46" fill="#2255a4" text-anchor="middle" letter-spacing="1">DREAMLAND</text>
<text x="358" y="345" font-family="Georgia, serif" font-size="14" fill="#2255a4">®</text>
<text x="220" y="390" font-family="Arial, sans-serif" font-size="13" letter-spacing="3" fill="#888" text-anchor="middle">МИР ЗНАНИЙ И ЧУДЕС</text>
</svg>