<svg xmlns="http://www.w3.org/2000/svg" viewBox="0 0 440 440">

<g><g transform="translate(220,50) rotate(0)"><path d="M0,-16 Q3,0 0,16" fill="none" stroke="#8a9a7a" stroke-width="1.5"></path><g transform="translate(3,-14) rotate(19) scale(1.1)" fill="#8faa6f"><path d="M0,0 C4,-3 10,-3 14,0 C10,3 4,3 0,0 Z"></path></g><g transform="translate(-3,-7) rotate(-43) scale(1.1)" fill="#8faa6f"><path d="M0,0 C4,-3 10,-3 14,0 C10,3 4,3 0,0 Z"></path></g><g transform="translate(3,0) rotate(35) scale(1.1)" fill="#6b8f5a"><path d="M0,0 C4,-3 10,-3 14,0 C10,3 4,3 0,0 Z"></path></g><g transform="translate(-3,7) rotate(-27) scale(1.1)" fill="#8faa6f"><path d="M0,0 C4,-3 10,-3 14,0 C10,3 4,3 0,0 Z"></path></g><g transform="translate(3,14) rotate(51) scale(1.1)" fill="#8faa6f"><path d="M0,0 C4,-3 10,-3 14,0 C10,3 4,3 0,0 Z"></path></g></g><g transform="translate(257.82855877257344,54.26225492908998) rotate(12.857142857142856)"><path d="M0,-16 Q3,0 0,16" fill="none" stroke="#8a9a7a" stroke-width="1.5"></path><g transform="translate(3,-14) rotate(19) scale(1.1)" fill="#8faa6f"><path d="M0,0 C4,-3 10,-3 14,0 C10,3 4,3 0,0 Z"></path></g><g transform="translate(-3,-7) rotate(-43) scale(1.1)" fill="#8faa6f"><path d="M0,0 C4,-3 10,-3 14,0 C10,3 4,3 0,0 Z"></path></g><g transform="translate(3,0) rotate(35) scale(1.1)" fill="#6b8f5a"><path d="M0,0 C4,-3 10,-3 14,0 C10,3 4,3 0,0 Z"></path></g><g transform="translate(-3,7) rotate(-27) scale(1.1)" fill="#8faa6f"><path d="M0,0 C4,-3 10,-3 14,0 C10,3 4,3 0,0 Z"></path></g><g transform="translate(3,14) rotate(51) scale(1.1)" fill="#8faa6f"><path d="M0,0 C4,-3 10,-3 14,0 C10,3 4,3 0,0 Z"></path></g></g><circle cx="264.83826449504267" cy="42.14350805969863" r="7" fill="#c0392b"></circle><circle cx="262.73826449504264" cy="40.04350805969863" r="2.1" fill="#e07a6d"></circle><g transform="translate(293.7602356499849,66.83529245658875) rotate(25.71428571428571)"><path d="M0,-16 Q3,0 0,16" fill="none" stroke="#8a9a7a" stroke-width="1.5"></path><g transform="translate(3,-14) rotate(19) scale(1.1)" fill="#8faa6f"><path d="M0,0 C4,-3 10,-3 14,0 C10,3 4,3 0,0 Z"></path></g><g transform="translate(-3,-7) rotate(-43) scale(1.1)" fill="#8faa6f"><path d="M0,0 C4,-3 10,-3 14,0 C10,3 4,3 0,0 Z"></path></g><g transform="translate(3,0) rotate(35) scale(1.1)" fill="#6b8f5a"><path d="M0,0 C4,-3 10,-3 14,0 C10,3 4,3 0,0 Z"></path></g><g transform="translate(-3,7) rotate(-27) scale(1.1)" fill="#8faa6f"><path d="M0,0 C4,-3 10,-3 14,0 C10,3 4,3 0,0 Z"></path></g><g transform="translate(3,14) rotate(51) scale(1.1)" fill="#8faa6f"><path d="M0,0 C4,-3 10,-3 14,0 C10,3 4,3 0,0 Z"></path></g></g><g transform="translate(325.99326631598467,87.08864798043493) rotate(38.57142857142857)"><path d="M0,-16 Q3,0 0,16" fill="none" stroke="#8a9a7a" stroke-width="1.5"></path><g transform="translate(3,-14) rotate(19) scale(1.1)" fill="#8faa6f"><path d="M0,0 C4,-3 10,-3 14,0 C10,3 4,3 0,0 Z"></path></g><g transform="translate(-3,-7) rotate(-43) scale(1.1)" fill="#8faa6f"><path d="M0,0 C4,-3 10,-3 14,0 C10,3 4,3 0,0 Z"></path></g><g transform="translate(3,0) rotate(35) scale(1.1)" fill="#6b8f5a"><path d="M0,0 C4,-3 10,-3 14,0 C10,3 4,3 0,0 Z"></path></g><g transform="translate(-3,7) rotate(-27) scale(1.1)" fill="#8faa6f"><path d="M0,0 C4,-3 10,-3 14,0 C10,3 4,3 0,0 Z"></path></g><g transform="translate(3,14) rotate(51) scale(1.1)" fill="#8faa6f"><path d="M0,0 C4,-3 10,-3 14,0 C10,3 4,3 0,0 Z"></path></g></g><g transform="translate(352.911352019565,114.00673368401529) rotate(51.42857142857142)"><path d="M0,-16 Q3,0 0,16" fill="none" stroke="#8a9a7a" stroke-width="1.5"></path><g transform="translate(3,-14) rotate(19) scale(1.1)" fill="#8faa6f"><path d="M0,0 C4,-3 10,-3 14,0 C10,3 4,3 0,0 Z"></path></g><g transform="translate(-3,-7) rotate(-43) scale(1.1)" fill="#8faa6f"><path d="M0,0 C4,-3 10,-3 14,0 C10,3 4,3 0,0 Z"></path></g><g transform="translate(3,0) rotate(35) scale(1.1)" fill="#6b8f5a"><path d="M0,0 C4,-3 10,-3 14,0 C10,3 4,3 0,0 Z"></path></g><g transform="translate(-3,7) rotate(-27) scale(1.1)" fill="#8faa6f"><path d="M0,0 C4,-3 10,-3 14,0 C10,3 4,3 0,0 Z"></path></g><g transform="translate(3,14) rotate(51) scale(1.1)" fill="#8faa6f"><path d="M0,0 C4,-3 10,-3 14,0 C10,3 4,3 0,0 Z"></path></g></g><g transform="translate(373.1647075434113,146.23976435001515) rotate(64.28571428571429)"><path d="M0,-16 Q3,0 0,16" fill="none" stroke="#8a9a7a" stroke-width="1.5"></path><g transform="translate(3,-14) rotate(19) scale(1.1)" fill="#8faa6f"><path d="M0,0 C4,-3 10,-3 14,0 C10,3 4,3 0,0 Z"></path></g><g transform="translate(-3,-7) rotate(-43) scale(1.1)" fill="#8faa6f"><path d="M0,0 C4,-3 10,-3 14,0 C10,3 4,3 0,0 Z"></path></g><g transform="translate(3,0) rotate(35) scale(1.1)" fill="#6b8f5a"><path d="M0,0 C4,-3 10,-3 14,0 C10,3 4,3 0,0 Z"></path></g><g transform="translate(-3,7) rotate(-27) scale(1.1)" fill="#8faa6f"><path d="M0,0 C4,-3 10,-3 14,0 C10,3 4,3 0,0 Z"></path></g><g transform="translate(3,14) rotate(51) scale(1.1)" fill="#8faa6f"><path d="M0,0 C4,-3 10,-3 14,0 C10,3 4,3 0,0 Z"></path></g></g><circle cx="387.01000540595265" cy="144.16425788230492" r="7" fill="#c0392b"></circle><circle cx="384.91000540595263" cy="142.06425788230493" r="2.1" fill="#e07a6d"></circle><g transform="translate(385.73774507091,182.17144122742656) rotate(77.14285714285714)"><path d="M0,-16 Q3,0 0,16" fill="none" stroke="#8a9a7a" stroke-width="1.5"></path><g transform="translate(3,-14) rotate(19) scale(1.1)" fill="#8faa6f"><path d="M0,0 C4,-3 10,-3 14,0 C10,3 4,3 0,0 Z"></path></g><g transform="translate(-3,-7) rotate(-43) scale(1.1)" fill="#8faa6f"><path d="M0,0 C4,-3 10,-3 14,0 C10,3 4,3 0,0 Z"></path></g><g transform="translate(3,0) rotate(35) scale(1.1)" fill="#6b8f5a"><path d="M0,0 C4,-3 10,-3 14,0 C10,3 4,3 0,0 Z"></path></g><g transform="translate(-3,7) rotate(-27) scale(1.1)" fill="#8faa6f"><path d="M0,0 C4,-3 10,-3 14,0 C10,3 4,3 0,0 Z"></path></g><g transform="translate(3,14) rotate(51) scale(1.1)" fill="#8faa6f"><path d="M0,0 C4,-3 10,-3 14,0 C10,3 4,3 0,0 Z"></path></g></g><g transform="translate(390,220) rotate(90)"><path d="M0,-16 Q3,0 0,16" fill="none" stroke="#8a9a7a" stroke-width="1.5"></path><g transform="translate(3,-14) rotate(19) scale(1.1)" fill="#8faa6f"><path d="M0,0 C4,-3 10,-3 14,0 C10,3 4,3 0,0 Z"></path></g><g transform="translate(-3,-7) rotate(-43) scale(1.1)" fill="#8faa6f"><path d="M0,0 C4,-3 10,-3 14,0 C10,3 4,3 0,0 Z"></path></g><g transform="translate(3,0) rotate(35) scale(1.1)" fill="#6b8f5a"><path d="M0,0 C4,-3 10,-3 14,0 C10,3 4,3 0,0 Z"></path></g><g transform="translate(-3,7) rotate(-27) scale(1.1)" fill="#8faa6f"><path d="M0,0 C4,-3 10,-3 14,0 C10,3 4,3 0,0 Z"></path></g><g transform="translate(3,14) rotate(51) scale(1.1)" fill="#8faa6f"><path d="M0,0 C4,-3 10,-3 14,0 C10,3 4,3 0,0 Z"></path></g></g><g transform="translate(385.73774507091,257.8285587725734) rotate(102.85714285714285)"><path d="M0,-16 Q3,0 0,16" fill="none" stroke="#8a9a7a" stroke-width="1.5"></path><g transform="translate(3,-14) rotate(19) scale(1.1)" fill="#8faa6f"><path d="M0,0 C4,-3 10,-3 14,0 C10,3 4,3 0,0 Z"></path></g><g transform="translate(-3,-7) rotate(-43) scale(1.1)" fill="#8faa6f"><path d="M0,0 C4,-3 10,-3 14,0 C10,3 4,3 0,0 Z"></path></g><g transform="translate(3,0) rotate(35) scale(1.1)" fill="#6b8f5a"><path d="M0,0 C4,-3 10,-3 14,0 C10,3 4,3 0,0 Z"></path></g><g transform="translate(-3,7) rotate(-27) scale(1.1)" fill="#8faa6f"><path d="M0,0 C4,-3 10,-3 14,0 C10,3 4,3 0,0 Z"></path></g><g transform="translate(3,14) rotate(51) scale(1.1)" fill="#8faa6f"><path d="M0,0 C4,-3 10,-3 14,0 C10,3 4,3 0,0 Z"></path></g></g><g transform="translate(373.1647075434112,293.7602356499849) rotate(115.71428571428572)"><path d="M0,-16 Q3,0 0,16" fill="none" stroke="#8a9a7a" stroke-width="1.5"></path><g transform="translate(3,-14) rotate(19) scale(1.1)" fill="#8faa6f"><path d="M0,0 C4,-3 10,-3 14,0 C10,3 4,3 0,0 Z"></path></g><g transform="translate(-3,-7) rotate(-43) scale(1.1)" fill="#8faa6f"><path d="M0,0 C4,-3 10,-3 14,0 C10,3 4,3 0,0 Z"></path></g><g transform="translate(3,0) rotate(35) scale(1.1)" fill="#6b8f5a"><path d="M0,0 C4,-3 10,-3 14,0 C10,3 4,3 0,0 Z"></path></g><g transform="translate(-3,7) rotate(-27) scale(1.1)" fill="#8faa6f"><path d="M0,0 C4,-3 10,-3 14,0 C10,3 4,3 0,0 Z"></path></g><g transform="translate(3,14) rotate(51) scale(1.1)" fill="#8faa6f"><path d="M0,0 C4,-3 10,-3 14,0 C10,3 4,3 0,0 Z"></path></g></g><circle cx="383.4198058629242" cy="303.2908682867579" r="7" fill="#c0392b"></circle><circle cx="381.31980586292417" cy="301.1908682867579" r="2.1" fill="#e07a6d"></circle><g transform="translate(352.911352019565,325.9932663159848) rotate(128.57142857142858)"><path d="M0,-16 Q3,0 0,16" fill="none" stroke="#8a9a7a" stroke-width="1.5"></path><g transform="translate(3,-14) rotate(19) scale(1.1)" fill="#8faa6f"><path d="M0,0 C4,-3 10,-3 14,0 C10,3 4,3 0,0 Z"></path></g><g transform="translate(-3,-7) rotate(-43) scale(1.1)" fill="#8faa6f"><path d="M0,0 C4,-3 10,-3 14,0 C10,3 4,3 0,0 Z"></path></g><g transform="translate(3,0) rotate(35) scale(1.1)" fill="#6b8f5a"><path d="M0,0 C4,-3 10,-3 14,0 C10,3 4,3 0,0 Z"></path></g><g transform="translate(-3,7) rotate(-27) scale(1.1)" fill="#8faa6f"><path d="M0,0 C4,-3 10,-3 14,0 C10,3 4,3 0,0 Z"></path></g><g transform="translate(3,14) rotate(51) scale(1.1)" fill="#8faa6f"><path d="M0,0 C4,-3 10,-3 14,0 C10,3 4,3 0,0 Z"></path></g></g><g transform="translate(325.9932663159847,352.9113520195651) rotate(141.42857142857142)"><path d="M0,-16 Q3,0 0,16" fill="none" stroke="#8a9a7a" stroke-width="1.5"></path><g transform="translate(3,-14) rotate(19) scale(1.1)" fill="#8faa6f"><path d="M0,0 C4,-3 10,-3 14,0 C10,3 4,3 0,0 Z"></path></g><g transform="translate(-3,-7) rotate(-43) scale(1.1)" fill="#8faa6f"><path d="M0,0 C4,-3 10,-3 14,0 C10,3 4,3 0,0 Z"></path></g><g transform="translate(3,0) rotate(35) scale(1.1)" fill="#6b8f5a"><path d="M0,0 C4,-3 10,-3 14,0 C10,3 4,3 0,0 Z"></path></g><g transform="translate(-3,7) rotate(-27) scale(1.1)" fill="#8faa6f"><path d="M0,0 C4,-3 10,-3 14,0 C10,3 4,3 0,0 Z"></path></g><g transform="translate(3,14) rotate(51) scale(1.1)" fill="#8faa6f"><path d="M0,0 C4,-3 10,-3 14,0 C10,3 4,3 0,0 Z"></path></g></g><g transform="translate(293.7602356499849,373.1647075434112) rotate(154.28571428571428)"><path d="M0,-16 Q3,0 0,16" fill="none" stroke="#8a9a7a" stroke-width="1.5"></path><g transform="translate(3,-14) rotate(19) scale(1.1)" fill="#8faa6f"><path d="M0,0 C4,-3 10,-3 14,0 C10,3 4,3 0,0 Z"></path></g><g transform="translate(-3,-7) rotate(-43) scale(1.1)" fill="#8faa6f"><path d="M0,0 C4,-3 10,-3 14,0 C10,3 4,3 0,0 Z"></path></g><g transform="translate(3,0) rotate(35) scale(1.1)" fill="#6b8f5a"><path d="M0,0 C4,-3 10,-3 14,0 C10,3 4,3 0,0 Z"></path></g><g transform="translate(-3,7) rotate(-27) scale(1.1)" fill="#8faa6f"><path d="M0,0 C4,-3 10,-3 14,0 C10,3 4,3 0,0 Z"></path></g><g transform="translate(3,14) rotate(51) scale(1.1)" fill="#8faa6f"><path d="M0,0 C4,-3 10,-3 14,0 C10,3 4,3 0,0 Z"></path></g></g><g transform="translate(257.82855877257344,385.73774507091) rotate(167.14285714285714)"><path d="M0,-16 Q3,0 0,16" fill="none" stroke="#8a9a7a" stroke-width="1.5"></path><g transform="translate(3,-14) rotate(19) scale(1.1)" fill="#8faa6f"><path d="M0,0 C4,-3 10,-3 14,0 C10,3 4,3 0,0 Z"></path></g><g transform="translate(-3,-7) rotate(-43) scale(1.1)" fill="#8faa6f"><path d="M0,0 C4,-3 10,-3 14,0 C10,3 4,3 0,0 Z"></path></g><g transform="translate(3,0) rotate(35) scale(1.1)" fill="#6b8f5a"><path d="M0,0 C4,-3 10,-3 14,0 C10,3 4,3 0,0 Z"></path></g><g transform="translate(-3,7) rotate(-27) scale(1.1)" fill="#8faa6f"><path d="M0,0 C4,-3 10,-3 14,0 C10,3 4,3 0,0 Z"></path></g><g transform="translate(3,14) rotate(51) scale(1.1)" fill="#8faa6f"><path d="M0,0 C4,-3 10,-3 14,0 C10,3 4,3 0,0 Z"></path></g></g><circle cx="256.771159348582" cy="399.6977560472002" r="7" fill="#c0392b"></circle><circle cx="254.671159348582" cy="397.59775604720016" r="2.1" fill="#e07a6d"></circle><g transform="translate(220.00000000000003,390) rotate(180)"><path d="M0,-16 Q3,0 0,16" fill="none" stroke="#8a9a7a" stroke-width="1.5"></path><g transform="translate(3,-14) rotate(19) scale(1.1)" fill="#8faa6f"><path d="M0,0 C4,-3 10,-3 14,0 C10,3 4,3 0,0 Z"></path></g><g transform="translate(-3,-7) rotate(-43) scale(1.1)" fill="#8faa6f"><path d="M0,0 C4,-3 10,-3 14,0 C10,3 4,3 0,0 Z"></path></g><g transform="translate(3,0) rotate(35) scale(1.1)" fill="#6b8f5a"><path d="M0,0 C4,-3 10,-3 14,0 C10,3 4,3 0,0 Z"></path></g><g transform="translate(-3,7) rotate(-27) scale(1.1)" fill="#8faa6f"><path d="M0,0 C4,-3 10,-3 14,0 C10,3 4,3 0,0 Z"></path></g><g transform="translate(3,14) rotate(51) scale(1.1)" fill="#8faa6f"><path d="M0,0 C4,-3 10,-3 14,0 C10,3 4,3 0,0 Z"></path></g></g><g transform="translate(182.17144122742656,385.73774507091) rotate(192.85714285714286)"><path d="M0,-16 Q3,0 0,16" fill="none" stroke="#8a9a7a" stroke-width="1.5"></path><g transform="translate(3,-14) rotate(19) scale(1.1)" fill="#8faa6f"><path d="M0,0 C4,-3 10,-3 14,0 C10,3 4,3 0,0 Z"></path></g><g transform="translate(-3,-7) rotate(-43) scale(1.1)" fill="#8faa6f"><path d="M0,0 C4,-3 10,-3 14,0 C10,3 4,3 0,0 Z"></path></g><g transform="translate(3,0) rotate(35) scale(1.1)" fill="#6b8f5a"><path d="M0,0 C4,-3 10,-3 14,0 C10,3 4,3 0,0 Z"></path></g><g transform="translate(-3,7) rotate(-27) scale(1.1)" fill="#8faa6f"><path d="M0,0 C4,-3 10,-3 14,0 C10,3 4,3 0,0 Z"></path></g><g transform="translate(3,14) rotate(51) scale(1.1)" fill="#8faa6f"><path d="M0,0 C4,-3 10,-3 14,0 C10,3 4,3 0,0 Z"></path></g></g><g transform="translate(146.2397643500152,373.1647075434113) rotate(205.7142857142857)"><path d="M0,-16 Q3,0 0,16" fill="none" stroke="#8a9a7a" stroke-width="1.5"></path><g transform="translate(3,-14) rotate(19) scale(1.1)" fill="#8faa6f"><path d="M0,0 C4,-3 10,-3 14,0 C10,3 4,3 0,0 Z"></path></g><g transform="translate(-3,-7) rotate(-43) scale(1.1)" fill="#8faa6f"><path d="M0,0 C4,-3 10,-3 14,0 C10,3 4,3 0,0 Z"></path></g><g transform="translate(3,0) rotate(35) scale(1.1)" fill="#6b8f5a"><path d="M0,0 C4,-3 10,-3 14,0 C10,3 4,3 0,0 Z"></path></g><g transform="translate(-3,7) rotate(-27) scale(1.1)" fill="#8faa6f"><path d="M0,0 C4,-3 10,-3 14,0 C10,3 4,3 0,0 Z"></path></g><g transform="translate(3,14) rotate(51) scale(1.1)" fill="#8faa6f"><path d="M0,0 C4,-3 10,-3 14,0 C10,3 4,3 0,0 Z"></path></g></g><g transform="translate(114.00673368401533,352.9113520195651) rotate(218.57142857142856)"><path d="M0,-16 Q3,0 0,16" fill="none" stroke="#8a9a7a" stroke-width="1.5"></path><g transform="translate(3,-14) rotate(19) scale(1.1)" fill="#8faa6f"><path d="M0,0 C4,-3 10,-3 14,0 C10,3 4,3 0,0 Z"></path></g><g transform="translate(-3,-7) rotate(-43) scale(1.1)" fill="#8faa6f"><path d="M0,0 C4,-3 10,-3 14,0 C10,3 4,3 0,0 Z"></path></g><g transform="translate(3,0) rotate(35) scale(1.1)" fill="#6b8f5a"><path d="M0,0 C4,-3 10,-3 14,0 C10,3 4,3 0,0 Z"></path></g><g transform="translate(-3,7) rotate(-27) scale(1.1)" fill="#8faa6f"><path d="M0,0 C4,-3 10,-3 14,0 C10,3 4,3 0,0 Z"></path></g><g transform="translate(3,14) rotate(51) scale(1.1)" fill="#8faa6f"><path d="M0,0 C4,-3 10,-3 14,0 C10,3 4,3 0,0 Z"></path></g></g><circle cx="102.43307984980243" cy="360.7885683378979" r="7" fill="#c0392b"></circle><circle cx="100.33307984980243" cy="358.6885683378979" r="2.1" fill="#e07a6d"></circle><g transform="translate(87.08864798043487,325.9932663159846) rotate(231.42857142857144)"><path d="M0,-16 Q3,0 0,16" fill="none" stroke="#8a9a7a" stroke-width="1.5"></path><g transform="translate(3,-14) rotate(19) scale(1.1)" fill="#8faa6f"><path d="M0,0 C4,-3 10,-3 14,0 C10,3 4,3 0,0 Z"></path></g><g transform="translate(-3,-7) rotate(-43) scale(1.1)" fill="#8faa6f"><path d="M0,0 C4,-3 10,-3 14,0 C10,3 4,3 0,0 Z"></path></g><g transform="translate(3,0) rotate(35) scale(1.1)" fill="#6b8f5a"><path d="M0,0 C4,-3 10,-3 14,0 C10,3 4,3 0,0 Z"></path></g><g transform="translate(-3,7) rotate(-27) scale(1.1)" fill="#8faa6f"><path d="M0,0 C4,-3 10,-3 14,0 C10,3 4,3 0,0 Z"></path></g><g transform="translate(3,14) rotate(51) scale(1.1)" fill="#8faa6f"><path d="M0,0 C4,-3 10,-3 14,0 C10,3 4,3 0,0 Z"></path></g></g><g transform="translate(66.83529245658869,293.7602356499848) rotate(244.2857142857143)"><path d="M0,-16 Q3,0 0,16" fill="none" stroke="#8a9a7a" stroke-width="1.5"></path><g transform="translate(3,-14) rotate(19) scale(1.1)" fill="#8faa6f"><path d="M0,0 C4,-3 10,-3 14,0 C10,3 4,3 0,0 Z"></path></g><g transform="translate(-3,-7) rotate(-43) scale(1.1)" fill="#8faa6f"><path d="M0,0 C4,-3 10,-3 14,0 C10,3 4,3 0,0 Z"></path></g><g transform="translate(3,0) rotate(35) scale(1.1)" fill="#6b8f5a"><path d="M0,0 C4,-3 10,-3 14,0 C10,3 4,3 0,0 Z"></path></g><g transform="translate(-3,7) rotate(-27) scale(1.1)" fill="#8faa6f"><path d="M0,0 C4,-3 10,-3 14,0 C10,3 4,3 0,0 Z"></path></g><g transform="translate(3,14) rotate(51) scale(1.1)" fill="#8faa6f"><path d="M0,0 C4,-3 10,-3 14,0 C10,3 4,3 0,0 Z"></path></g></g><g transform="translate(54.26225492908998,257.82855877257333) rotate(257.14285714285717)"><path d="M0,-16 Q3,0 0,16" fill="none" stroke="#8a9a7a" stroke-width="1.5"></path><g transform="translate(3,-14) rotate(19) scale(1.1)" fill="#8faa6f"><path d="M0,0 C4,-3 10,-3 14,0 C10,3 4,3 0,0 Z"></path></g><g transform="translate(-3,-7) rotate(-43) scale(1.1)" fill="#8faa6f"><path d="M0,0 C4,-3 10,-3 14,0 C10,3 4,3 0,0 Z"></path></g><g transform="translate(3,0) rotate(35) scale(1.1)" fill="#6b8f5a"><path d="M0,0 C4,-3 10,-3 14,0 C10,3 4,3 0,0 Z"></path></g><g transform="translate(-3,7) rotate(-27) scale(1.1)" fill="#8faa6f"><path d="M0,0 C4,-3 10,-3 14,0 C10,3 4,3 0,0 Z"></path></g><g transform="translate(3,14) rotate(51) scale(1.1)" fill="#8faa6f"><path d="M0,0 C4,-3 10,-3 14,0 C10,3 4,3 0,0 Z"></path></g></g><g transform="translate(50,220.00000000000003) rotate(270)"><path d="M0,-16 Q3,0 0,16" fill="none" stroke="#8a9a7a" stroke-width="1.5"></path><g transform="translate(3,-14) rotate(19) scale(1.1)" fill="#8faa6f"><path d="M0,0 C4,-3 10,-3 14,0 C10,3 4,3 0,0 Z"></path></g><g transform="translate(-3,-7) rotate(-43) scale(1.1)" fill="#8faa6f"><path d="M0,0 C4,-3 10,-3 14,0 C10,3 4,3 0,0 Z"></path></g><g transform="translate(3,0) rotate(35) scale(1.1)" fill="#6b8f5a"><path d="M0,0 C4,-3 10,-3 14,0 C10,3 4,3 0,0 Z"></path></g><g transform="translate(-3,7) rotate(-27) scale(1.1)" fill="#8faa6f"><path d="M0,0 C4,-3 10,-3 14,0 C10,3 4,3 0,0 Z"></path></g><g transform="translate(3,14) rotate(51) scale(1.1)" fill="#8faa6f"><path d="M0,0 C4,-3 10,-3 14,0 C10,3 4,3 0,0 Z"></path></g></g><circle cx="36.625289152241514" cy="215.8627171067413" r="7" fill="#c0392b"></circle><circle cx="34.52528915224151" cy="213.7627171067413" r="2.1" fill="#e07a6d"></circle><g transform="translate(54.26225492908998,182.17144122742658) rotate(282.85714285714283)"><path d="M0,-16 Q3,0 0,16" fill="none" stroke="#8a9a7a" stroke-width="1.5"></path><g transform="translate(3,-14) rotate(19) scale(1.1)" fill="#8faa6f"><path d="M0,0 C4,-3 10,-3 14,0 C10,3 4,3 0,0 Z"></path></g><g transform="translate(-3,-7) rotate(-43) scale(1.1)" fill="#8faa6f"><path d="M0,0 C4,-3 10,-3 14,0 C10,3 4,3 0,0 Z"></path></g><g transform="translate(3,0) rotate(35) scale(1.1)" fill="#6b8f5a"><path d="M0,0 C4,-3 10,-3 14,0 C10,3 4,3 0,0 Z"></path></g><g transform="translate(-3,7) rotate(-27) scale(1.1)" fill="#8faa6f"><path d="M0,0 C4,-3 10,-3 14,0 C10,3 4,3 0,0 Z"></path></g><g transform="translate(3,14) rotate(51) scale(1.1)" fill="#8faa6f"><path d="M0,0 C4,-3 10,-3 14,0 C10,3 4,3 0,0 Z"></path></g></g><g transform="translate(66.83529245658872,146.23976435001515) rotate(295.7142857142857)"><path d="M0,-16 Q3,0 0,16" fill="none" stroke="#8a9a7a" stroke-width="1.5"></path><g transform="translate(3,-14) rotate(19) scale(1.1)" fill="#8faa6f"><path d="M0,0 C4,-3 10,-3 14,0 C10,3 4,3 0,0 Z"></path></g><g transform="translate(-3,-7) rotate(-43) scale(1.1)" fill="#8faa6f"><path d="M0,0 C4,-3 10,-3 14,0 C10,3 4,3 0,0 Z"></path></g><g transform="translate(3,0) rotate(35) scale(1.1)" fill="#6b8f5a"><path d="M0,0 C4,-3 10,-3 14,0 C10,3 4,3 0,0 Z"></path></g><g transform="translate(-3,7) rotate(-27) scale(1.1)" fill="#8faa6f"><path d="M0,0 C4,-3 10,-3 14,0 C10,3 4,3 0,0 Z"></path></g><g transform="translate(3,14) rotate(51) scale(1.1)" fill="#8faa6f"><path d="M0,0 C4,-3 10,-3 14,0 C10,3 4,3 0,0 Z"></path></g></g><g transform="translate(87.08864798043493,114.00673368401533) rotate(308.57142857142856)"><path d="M0,-16 Q3,0 0,16" fill="none" stroke="#8a9a7a" stroke-width="1.5"></path><g transform="translate(3,-14) rotate(19) scale(1.1)" fill="#8faa6f"><path d="M0,0 C4,-3 10,-3 14,0 C10,3 4,3 0,0 Z"></path></g><g transform="translate(-3,-7) rotate(-43) scale(1.1)" fill="#8faa6f"><path d="M0,0 C4,-3 10,-3 14,0 C10,3 4,3 0,0 Z"></path></g><g transform="translate(3,0) rotate(35) scale(1.1)" fill="#6b8f5a"><path d="M0,0 C4,-3 10,-3 14,0 C10,3 4,3 0,0 Z"></path></g><g transform="translate(-3,7) rotate(-27) scale(1.1)" fill="#8faa6f"><path d="M0,0 C4,-3 10,-3 14,0 C10,3 4,3 0,0 Z"></path></g><g transform="translate(3,14) rotate(51) scale(1.1)" fill="#8faa6f"><path d="M0,0 C4,-3 10,-3 14,0 C10,3 4,3 0,0 Z"></path></g></g><g transform="translate(114.00673368401527,87.08864798043496) rotate(321.42857142857144)"><path d="M0,-16 Q3,0 0,16" fill="none" stroke="#8a9a7a" stroke-width="1.5"></path><g transform="translate(3,-14) rotate(19) scale(1.1)" fill="#8faa6f"><path d="M0,0 C4,-3 10,-3 14,0 C10,3 4,3 0,0 Z"></path></g><g transform="translate(-3,-7) rotate(-43) scale(1.1)" fill="#8faa6f"><path d="M0,0 C4,-3 10,-3 14,0 C10,3 4,3 0,0 Z"></path></g><g transform="translate(3,0) rotate(35) scale(1.1)" fill="#6b8f5a"><path d="M0,0 C4,-3 10,-3 14,0 C10,3 4,3 0,0 Z"></path></g><g transform="translate(-3,7) rotate(-27) scale(1.1)" fill="#8faa6f"><path d="M0,0 C4,-3 10,-3 14,0 C10,3 4,3 0,0 Z"></path></g><g transform="translate(3,14) rotate(51) scale(1.1)" fill="#8faa6f"><path d="M0,0 C4,-3 10,-3 14,0 C10,3 4,3 0,0 Z"></path></g></g><circle cx="108.90239588545458" cy="74.05232427939927" r="7" fill="#c0392b"></circle><circle cx="106.80239588545459" cy="71.95232427939928" r="2.1" fill="#e07a6d"></circle><g transform="translate(146.2397643500151,66.83529245658877) rotate(334.2857142857143)"><path d="M0,-16 Q3,0 0,16" fill="none" stroke="#8a9a7a" stroke-width="1.5"></path><g transform="translate(3,-14) rotate(19) scale(1.1)" fill="#8faa6f"><path d="M0,0 C4,-3 10,-3 14,0 C10,3 4,3 0,0 Z"></path></g><g transform="translate(-3,-7) rotate(-43) scale(1.1)" fill="#8faa6f"><path d="M0,0 C4,-3 10,-3 14,0 C10,3 4,3 0,0 Z"></path></g><g transform="translate(3,0) rotate(35) scale(1.1)" fill="#6b8f5a"><path d="M0,0 C4,-3 10,-3 14,0 C10,3 4,3 0,0 Z"></path></g><g transform="translate(-3,7) rotate(-27) scale(1.1)" fill="#8faa6f"><path d="M0,0 C4,-3 10,-3 14,0 C10,3 4,3 0,0 Z"></path></g><g transform="translate(3,14) rotate(51) scale(1.1)" fill="#8faa6f"><path d="M0,0 C4,-3 10,-3 14,0 C10,3 4,3 0,0 Z"></path></g></g><g transform="translate(182.1714412274265,54.262254929090005) rotate(347.14285714285717)"><path d="M0,-16 Q3,0 0,16" fill="none" stroke="#8a9a7a" stroke-width="1.5"></path><g transform="translate(3,-14) rotate(19) scale(1.1)" fill="#8faa6f"><path d="M0,0 C4,-3 10,-3 14,0 C10,3 4,3 0,0 Z"></path></g><g transform="translate(-3,-7) rotate(-43) scale(1.1)" fill="#8faa6f"><path d="M0,0 C4,-3 10,-3 14,0 C10,3 4,3 0,0 Z"></path></g><g transform="translate(3,0) rotate(35) scale(1.1)" fill="#6b8f5a"><path d="M0,0 C4,-3 10,-3 14,0 C10,3 4,3 0,0 Z"></path></g><g transform="translate(-3,7) rotate(-27) scale(1.1)" fill="#8faa6f"><path d="M0,0 C4,-3 10,-3 14,0 C10,3 4,3 0,0 Z"></path></g><g transform="translate(3,14) rotate(51) scale(1.1)" fill="#8faa6f"><path d="M0,0 C4,-3 10,-3 14,0 C10,3 4,3 0,0 Z"></path></g></g></g>
<text x="230" y="215" font-family="&#39;Brush Script MT&#39;,&#39;Segoe Script&#39;,&#39;Comic Sans MS&#39;,cursive" font-size="52" fill="#2a3f8f" text-anchor="middle" font-style="italic">Огни</text>
<text x="220" y="270" font-family="&#39;Brush Script MT&#39;,&#39;Segoe Script&#39;,&#39;Comic Sans MS&#39;,cursive" font-size="52" fill="#2a3f8f" text-anchor="middle" font-style="italic">Ташкента</text>
<text x="220" y="305" font-family="Arial, sans-serif" font-size="13" letter-spacing="4" fill="#7a7a72" text-anchor="middle">КАФЕ-РЕСТОРАН</text>
</svg>