<svg xmlns="http://www.w3.org/2000/svg" viewBox="0 0 440 460">

<g transform="translate(220,225)">
<circle cx="0" cy="-190" r="3" fill="#b8935a" transform="rotate(0)"></circle><circle cx="0" cy="-190" r="3" fill="#b8935a" transform="rotate(15)"></circle><circle cx="0" cy="-190" r="3" fill="#b8935a" transform="rotate(30)"></circle><circle cx="0" cy="-190" r="3" fill="#b8935a" transform="rotate(45)"></circle><circle cx="0" cy="-190" r="3" fill="#b8935a" transform="rotate(60)"></circle><circle cx="0" cy="-190" r="3" fill="#b8935a" transform="rotate(75)"></circle><circle cx="0" cy="-190" r="3" fill="#b8935a" transform="rotate(90)"></circle><circle cx="0" cy="-190" r="3" fill="#b8935a" transform="rotate(105)"></circle><circle cx="0" cy="-190" r="3" fill="#b8935a" transform="rotate(120)"></circle><circle cx="0" cy="-190" r="3" fill="#b8935a" transform="rotate(135)"></circle><circle cx="0" cy="-190" r="3" fill="#b8935a" transform="rotate(150)"></circle><circle cx="0" cy="-190" r="3" fill="#b8935a" transform="rotate(165)"></circle><circle cx="0" cy="-190" r="3" fill="#b8935a" transform="rotate(180)"></circle><circle cx="0" cy="-190" r="3" fill="#b8935a" transform="rotate(195)"></circle><circle cx="0" cy="-190" r="3" fill="#b8935a" transform="rotate(210)"></circle><circle cx="0" cy="-190" r="3" fill="#b8935a" transform="rotate(225)"></circle><circle cx="0" cy="-190" r="3" fill="#b8935a" transform="rotate(240)"></circle><circle cx="0" cy="-190" r="3" fill="#b8935a" transform="rotate(255)"></circle><circle cx="0" cy="-190" r="3" fill="#b8935a" transform="rotate(270)"></circle><circle cx="0" cy="-190" r="3" fill="#b8935a" transform="rotate(285)"></circle><circle cx="0" cy="-190" r="3" fill="#b8935a" transform="rotate(300)"></circle><circle cx="0" cy="-190" r="3" fill="#b8935a" transform="rotate(315)"></circle><circle cx="0" cy="-190" r="3" fill="#b8935a" transform="rotate(330)"></circle><circle cx="0" cy="-190" r="3" fill="#b8935a" transform="rotate(345)"></circle>
<path d="M0,-165 C10,-140 22,-118 8,-95 C22,-90 30,-70 15,-55 C10,-35 -10,-35 -15,-55 C-30,-70 -22,-90 -8,-95 C-22,-118 -10,-140 0,-165 Z" fill="none" stroke="#b8935a" stroke-width="2.5" transform="rotate(0)"></path><path d="M0,-165 C10,-140 22,-118 8,-95 C22,-90 30,-70 15,-55 C10,-35 -10,-35 -15,-55 C-30,-70 -22,-90 -8,-95 C-22,-118 -10,-140 0,-165 Z" fill="none" stroke="#b8935a" stroke-width="2.5" transform="rotate(22.5)"></path><path d="M0,-165 C10,-140 22,-118 8,-95 C22,-90 30,-70 15,-55 C10,-35 -10,-35 -15,-55 C-30,-70 -22,-90 -8,-95 C-22,-118 -10,-140 0,-165 Z" fill="none" stroke="#b8935a" stroke-width="2.5" transform="rotate(45)"></path><path d="M0,-165 C10,-140 22,-118 8,-95 C22,-90 30,-70 15,-55 C10,-35 -10,-35 -15,-55 C-30,-70 -22,-90 -8,-95 C-22,-118 -10,-140 0,-165 Z" fill="none" stroke="#b8935a" stroke-width="2.5" transform="rotate(67.5)"></path><path d="M0,-165 C10,-140 22,-118 8,-95 C22,-90 30,-70 15,-55 C10,-35 -10,-35 -15,-55 C-30,-70 -22,-90 -8,-95 C-22,-118 -10,-140 0,-165 Z" fill="none" stroke="#b8935a" stroke-width="2.5" transform="rotate(90)"></path><path d="M0,-165 C10,-140 22,-118 8,-95 C22,-90 30,-70 15,-55 C10,-35 -10,-35 -15,-55 C-30,-70 -22,-90 -8,-95 C-22,-118 -10,-140 0,-165 Z" fill="none" stroke="#b8935a" stroke-width="2.5" transform="rotate(112.5)"></path><path d="M0,-165 C10,-140 22,-118 8,-95 C22,-90 30,-70 15,-55 C10,-35 -10,-35 -15,-55 C-30,-70 -22,-90 -8,-95 C-22,-118 -10,-140 0,-165 Z" fill="none" stroke="#b8935a" stroke-width="2.5" transform="rotate(135)"></path><path d="M0,-165 C10,-140 22,-118 8,-95 C22,-90 30,-70 15,-55 C10,-35 -10,-35 -15,-55 C-30,-70 -22,-90 -8,-95 C-22,-118 -10,-140 0,-165 Z" fill="none" stroke="#b8935a" stroke-width="2.5" transform="rotate(157.5)"></path><path d="M0,-165 C10,-140 22,-118 8,-95 C22,-90 30,-70 15,-55 C10,-35 -10,-35 -15,-55 C-30,-70 -22,-90 -8,-95 C-22,-118 -10,-140 0,-165 Z" fill="none" stroke="#b8935a" stroke-width="2.5" transform="rotate(180)"></path><path d="M0,-165 C10,-140 22,-118 8,-95 C22,-90 30,-70 15,-55 C10,-35 -10,-35 -15,-55 C-30,-70 -22,-90 -8,-95 C-22,-118 -10,-140 0,-165 Z" fill="none" stroke="#b8935a" stroke-width="2.5" transform="rotate(202.5)"></path><path d="M0,-165 C10,-140 22,-118 8,-95 C22,-90 30,-70 15,-55 C10,-35 -10,-35 -15,-55 C-30,-70 -22,-90 -8,-95 C-22,-118 -10,-140 0,-165 Z" fill="none" stroke="#b8935a" stroke-width="2.5" transform="rotate(225)"></path><path d="M0,-165 C10,-140 22,-118 8,-95 C22,-90 30,-70 15,-55 C10,-35 -10,-35 -15,-55 C-30,-70 -22,-90 -8,-95 C-22,-118 -10,-140 0,-165 Z" fill="none" stroke="#b8935a" stroke-width="2.5" transform="rotate(247.5)"></path><path d="M0,-165 C10,-140 22,-118 8,-95 C22,-90 30,-70 15,-55 C10,-35 -10,-35 -15,-55 C-30,-70 -22,-90 -8,-95 C-22,-118 -10,-140 0,-165 Z" fill="none" stroke="#b8935a" stroke-width="2.5" transform="rotate(270)"></path><path d="M0,-165 C10,-140 22,-118 8,-95 C22,-90 30,-70 15,-55 C10,-35 -10,-35 -15,-55 C-30,-70 -22,-90 -8,-95 C-22,-118 -10,-140 0,-165 Z" fill="none" stroke="#b8935a" stroke-width="2.5" transform="rotate(292.5)"></path><path d="M0,-165 C10,-140 22,-118 8,-95 C22,-90 30,-70 15,-55 C10,-35 -10,-35 -15,-55 C-30,-70 -22,-90 -8,-95 C-22,-118 -10,-140 0,-165 Z" fill="none" stroke="#b8935a" stroke-width="2.5" transform="rotate(315)"></path><path d="M0,-165 C10,-140 22,-118 8,-95 C22,-90 30,-70 15,-55 C10,-35 -10,-35 -15,-55 C-30,-70 -22,-90 -8,-95 C-22,-118 -10,-140 0,-165 Z" fill="none" stroke="#b8935a" stroke-width="2.5" transform="rotate(337.5)"></path>
<path d="M0,-120 C6,-105 14,-92 4,-78 C-4,-92 6,-105 0,-120 Z" fill="#b8935a" transform="rotate(11.25)"></path><path d="M0,-120 C6,-105 14,-92 4,-78 C-4,-92 6,-105 0,-120 Z" fill="#b8935a" transform="rotate(33.75)"></path><path d="M0,-120 C6,-105 14,-92 4,-78 C-4,-92 6,-105 0,-120 Z" fill="#b8935a" transform="rotate(56.25)"></path><path d="M0,-120 C6,-105 14,-92 4,-78 C-4,-92 6,-105 0,-120 Z" fill="#b8935a" transform="rotate(78.75)"></path><path d="M0,-120 C6,-105 14,-92 4,-78 C-4,-92 6,-105 0,-120 Z" fill="#b8935a" transform="rotate(101.25)"></path><path d="M0,-120 C6,-105 14,-92 4,-78 C-4,-92 6,-105 0,-120 Z" fill="#b8935a" transform="rotate(123.75)"></path><path d="M0,-120 C6,-105 14,-92 4,-78 C-4,-92 6,-105 0,-120 Z" fill="#b8935a" transform="rotate(146.25)"></path><path d="M0,-120 C6,-105 14,-92 4,-78 C-4,-92 6,-105 0,-120 Z" fill="#b8935a" transform="rotate(168.75)"></path><path d="M0,-120 C6,-105 14,-92 4,-78 C-4,-92 6,-105 0,-120 Z" fill="#b8935a" transform="rotate(191.25)"></path><path d="M0,-120 C6,-105 14,-92 4,-78 C-4,-92 6,-105 0,-120 Z" fill="#b8935a" transform="rotate(213.75)"></path><path d="M0,-120 C6,-105 14,-92 4,-78 C-4,-92 6,-105 0,-120 Z" fill="#b8935a" transform="rotate(236.25)"></path><path d="M0,-120 C6,-105 14,-92 4,-78 C-4,-92 6,-105 0,-120 Z" fill="#b8935a" transform="rotate(258.75)"></path><path d="M0,-120 C6,-105 14,-92 4,-78 C-4,-92 6,-105 0,-120 Z" fill="#b8935a" transform="rotate(281.25)"></path><path d="M0,-120 C6,-105 14,-92 4,-78 C-4,-92 6,-105 0,-120 Z" fill="#b8935a" transform="rotate(303.75)"></path><path d="M0,-120 C6,-105 14,-92 4,-78 C-4,-92 6,-105 0,-120 Z" fill="#b8935a" transform="rotate(326.25)"></path><path d="M0,-120 C6,-105 14,-92 4,-78 C-4,-92 6,-105 0,-120 Z" fill="#b8935a" transform="rotate(348.75)"></path>
</g>
<text x="220" y="235" font-family="Georgia, &#39;Times New Roman&#39;, serif" font-weight="600" font-size="32" fill="#8b5e34" text-anchor="middle" letter-spacing="4">ORZU HOTEL</text>
</svg>