<svg xmlns="http://www.w3.org/2000/svg" viewBox="0 0 1607 2952" fill="none"><defs><linearGradient id="g" gradientUnits="userSpaceOnUse" x1="34.1" y1="-303.5" x2="-311.3" y2="2771.5"><stop offset="0" stop-color="#e5c58e"/><stop offset="0.25" stop-color="#e5c690"/><stop offset="0.5" stop-color="#e5c68f"/><stop offset="0.75" stop-color="#e8cc9a"/><stop offset="1" stop-color="#e8ca98"/></linearGradient></defs><path d="M 1088.127 90.532 C 1072.521 140.014, 1055.710 192.875, 1050.768 208 C 985.306 408.341, 889.650 576.659, 761.527 716.954 C 616.979 875.235, 427.702 993.294, 233.500 1046.304 C 222.500 1049.307, 166.025 1064.487, 108 1080.037 C 49.975 1095.587, 2.050 1108.741, 1.500 1109.268 C 0.854 1109.886, 1.208 1110.039, 2.500 1109.700 C 3.600 1109.411, 106.764 1109.023, 231.754 1108.837 L 459.008 1108.500 459.002 1559.750 C 458.998 1807.938, 459.376 2011, 459.841 2011 C 460.817 2011, 471.563 1988.870, 478.837 1971.882 C 498.408 1926.172, 511.039 1878.449, 517.449 1826 C 522.066 1788.216, 521.985 1795.631, 521.993 1409.759 L 522 1046.018 469.750 1045.759 C 417.920 1045.502, 417.532 1045.485, 421.500 1043.637 C 423.700 1042.613, 436.975 1036.039, 451 1029.030 C 550.847 979.130, 639.203 918.586, 726 840.590 C 744.554 823.917, 793.678 774.810, 810.619 756 C 881.201 677.632, 939.001 596.653, 991.203 503 C 1008.687 471.633, 1037.886 412.745, 1051.819 380.750 C 1052.957 378.137, 1054.025 376, 1054.194 376 C 1054.362 376, 1054.500 492.887, 1054.500 635.750 L 1054.500 895.500 1288.750 895.752 L 1523 896.004 1523 969.002 L 1523 1042 1288.500 1042 L 1054 1042 1054.036 1548.250 C 1054.070 2034.713, 1054.736 2192.343, 1056.971 2243 C 1061.568 2347.184, 1070.802 2416.857, 1087.526 2473.542 C 1101.806 2521.947, 1120.693 2557.329, 1146.418 2583.870 C 1171.139 2609.375, 1199.068 2624.188, 1234.500 2630.586 C 1248.372 2633.091, 1280.920 2633.123, 1297 2630.646 C 1350.757 2622.368, 1409.297 2598.660, 1478.325 2557.212 C 1487.221 2551.870, 1494.847 2547.347, 1495.271 2547.160 C 1497.125 2546.341, 1484.877 2574.239, 1472.512 2599 C 1451.282 2641.511, 1426.252 2679.933, 1396.926 2715.025 C 1383.423 2731.183, 1357.961 2757.227, 1341.500 2771.718 C 1289.629 2817.383, 1228.889 2851.398, 1165.233 2870.430 C 1090.064 2892.905, 1008.929 2894.335, 933.500 2874.514 C 905.281 2867.099, 882.122 2858.465, 854.224 2844.959 C 759.534 2799.118, 682.089 2721.558, 624.166 2614.563 L 616.080 2599.626 611.965 2608.563 C 604.061 2625.732, 596.044 2646.472, 589.898 2665.659 L 586.832 2675.231 592.063 2683.866 C 605.164 2705.491, 626.769 2735.302, 646.582 2759.095 C 662.452 2778.151, 700.101 2815.923, 717.503 2830.246 C 771.127 2874.381, 823.910 2904.314, 884.583 2924.995 C 944.545 2945.434, 1015.390 2954.923, 1073 2950.232 C 1142.490 2944.575, 1200.991 2928.928, 1260.500 2900.082 C 1390.790 2836.928, 1492.379 2722.994, 1553.478 2571.500 C 1568.437 2534.411, 1575.782 2510.840, 1593.992 2441.500 C 1600.636 2416.200, 1606.291 2394.874, 1606.559 2394.109 C 1606.909 2393.108, 1606.689 2392.995, 1605.773 2393.707 C 1603.200 2395.709, 1525.180 2451.834, 1515.500 2458.646 C 1500.651 2469.096, 1477.393 2484.468, 1461 2494.667 C 1398.881 2533.314, 1345.990 2557.035, 1300.649 2566.585 C 1285.581 2569.758, 1258.409 2570.981, 1246.246 2569.032 C 1236.917 2567.537, 1224.330 2563.690, 1217.500 2560.245 C 1197.432 2550.123, 1179.053 2530.053, 1166.033 2504.042 C 1139.870 2451.771, 1125.793 2374.683, 1120.011 2252 C 1117.415 2196.925, 1117.043 2118.773, 1117.022 1623.750 L 1117 1104 1351.504 1104 L 1586.007 1104 1585.754 968.992 L 1585.500 833.983 1351.251 833.996 L 1117.002 834.008 1116.751 417.286 L 1116.500 0.564 1088.127 90.532 M 348.710 1859.778 C 348.395 1864.025, 347.206 1871.061, 346.068 1875.413 C 343.424 1885.523, 335.641 1901.733, 329.611 1909.690 C 315.920 1927.758, 291.037 1939.939, 261.985 1942.798 C 253.511 1943.632, 253.506 1943.634, 258.500 1944.316 C 274.078 1946.443, 279.273 1947.446, 286.500 1949.720 C 304.214 1955.294, 320.329 1966.037, 329.857 1978.623 C 340.010 1992.036, 347.450 2011.252, 348.696 2027.284 C 349.306 2035.123, 351 2039.083, 351 2032.669 C 351 2030.773, 351.696 2025.459, 352.546 2020.860 C 355.418 2005.323, 359.802 1994.114, 367.625 1982.306 C 377.174 1967.890, 391.378 1957.183, 409.076 1951.058 C 418.716 1947.722, 430.941 1945.046, 437.208 1944.900 C 439.569 1944.845, 442.625 1944.479, 444 1944.086 C 445.751 1943.585, 443.953 1943.165, 438 1942.683 C 420.229 1941.245, 399.886 1934.097, 386.656 1924.642 C 379.674 1919.651, 371.964 1911.778, 367.102 1904.673 C 359.082 1892.955, 352.491 1874.247, 351.276 1859.753 C 350.962 1856.003, 350.384 1852.738, 349.993 1852.496 C 349.602 1852.254, 349.024 1855.531, 348.710 1859.778 M 543.772 1892 C 543.439 1892.825, 542.892 1899.350, 542.557 1906.500 C 539.697 1967.520, 524.460 2027.928, 498.645 2080.586 C 469.993 2139.035, 436.802 2178.495, 388 2212.132 C 363.209 2229.219, 328.527 2246.225, 294.633 2257.913 C 256.329 2271.121, 199.069 2282.076, 155 2284.627 C 133.690 2285.861, 136.173 2286.800, 166.500 2288.975 C 216.255 2292.544, 265.942 2303.526, 310 2320.691 C 324.450 2326.321, 350.888 2339.060, 363.713 2346.573 C 377.698 2354.764, 394.767 2366.482, 407.500 2376.632 C 421.661 2387.920, 447.158 2413.427, 458.349 2427.500 C 508.305 2490.323, 537.017 2571.378, 542.976 2666.403 C 543.525 2675.150, 544.135 2682.469, 544.333 2682.667 C 544.531 2682.864, 544.982 2678.183, 545.336 2672.263 C 546.031 2660.650, 550.813 2624.457, 553.969 2606.928 C 560.957 2568.122, 572.394 2530.232, 586.667 2498.599 C 616.089 2433.397, 662.104 2381.814, 722.287 2346.571 C 735.045 2339.100, 761.478 2326.373, 776 2320.709 C 817.893 2304.369, 873.834 2292.208, 922 2288.969 C 931.075 2288.358, 940.975 2287.520, 944 2287.105 L 949.500 2286.351 945 2285.725 C 942.525 2285.381, 933.750 2284.600, 925.500 2283.989 C 873.901 2280.170, 821.953 2268.566, 776.500 2250.707 C 759.830 2244.157, 729.551 2228.991, 715.758 2220.282 C 637.773 2171.045, 587.058 2100.688, 561.658 2006.500 C 553.202 1975.147, 546.978 1936.394, 545.114 1903.500 C 544.709 1896.350, 544.105 1891.175, 543.772 1892 M 275.139 2085.602 C 271.686 2104.479, 259.642 2117.816, 241.744 2122.580 C 238.860 2123.348, 235.064 2123.982, 233.309 2123.988 C 227.650 2124.009, 228.868 2125.701, 235.003 2126.343 C 242.592 2127.136, 251.867 2130.905, 258.436 2135.864 C 267.472 2142.686, 273.905 2154.367, 275.612 2167.052 L 276.345 2172.500 277.577 2165.254 C 281.291 2143.401, 296.801 2128.707, 318.992 2126.017 C 324.913 2125.300, 324.662 2125.164, 313.715 2123.153 C 304.878 2121.530, 295.895 2116.619, 289.499 2109.913 C 283.036 2103.138, 279.266 2095.447, 277.581 2085.602 L 276.400 2078.703 275.139 2085.602" fill="url(#g)" fill-rule="evenodd"/></svg>