<svg xmlns="http://www.w3.org/2000/svg" viewBox="0 0 3224 1002" fill="none"><defs><linearGradient id="g" gradientUnits="userSpaceOnUse" x1="68.4" y1="-103.0" x2="-624.5" y2="940.7"><stop offset="0" stop-color="#e5c58e"/><stop offset="0.25" stop-color="#e5c690"/><stop offset="0.5" stop-color="#e5c68f"/><stop offset="0.75" stop-color="#e8cc9a"/><stop offset="1" stop-color="#e8ca98"/></linearGradient></defs><path d="M 3032.665 1.527 C 2979.853 7.915, 2933.817 30.799, 2901.920 66.519 C 2877.436 93.938, 2864.109 119.903, 2854.167 159.556 C 2844.203 199.299, 2839.445 243.245, 2837.448 314 C 2836.524 346.744, 2832.929 364.917, 2826.007 371.839 C 2819.558 378.289, 2803.845 379.979, 2750.250 379.991 L 2712 380 2712 398 L 2712 416 2774.532 416 L 2837.063 416 2836.677 653.250 C 2836.403 821.561, 2835.966 892.534, 2835.172 897.500 C 2832.419 914.736, 2828.170 927.096, 2823.196 932.343 C 2816.705 939.190, 2801.329 943.844, 2773.388 947.419 C 2738.248 951.916, 2714.211 953.276, 2692.218 952.011 C 2656.081 949.931, 2634.307 946.319, 2622.193 940.393 C 2609.504 934.186, 2603.773 916.357, 2601.978 877.500 C 2601.469 866.475, 2601.042 742.053, 2601.027 600.250 C 2601.009 428.313, 2600.666 343, 2599.993 343 C 2599.440 343, 2594.544 343.667, 2589.113 344.483 C 2542.946 351.417, 2464.386 358.839, 2404 361.971 C 2392.725 362.556, 2380.238 363.290, 2376.250 363.602 L 2369 364.171 2369 382.458 L 2369 400.745 2390.250 401.412 C 2437.093 402.883, 2461.446 405.969, 2474.452 412.082 C 2483.436 416.305, 2489.250 426.242, 2493.207 444.134 L 2495.500 454.500 2495.500 667.500 L 2495.500 880.500 2492.189 889.988 C 2486.921 905.088, 2480.359 914.482, 2468.466 923.951 C 2448.517 939.836, 2421.043 948.304, 2375.750 952.530 L 2369 953.159 2369 971.730 L 2369 990.300 2380.750 989.650 C 2475.129 984.429, 2494.834 983.705, 2542 983.725 C 2586.763 983.743, 2608.295 984.469, 2673 988.140 C 2714.246 990.480, 2707.952 990.592, 2804 985.817 C 2879.139 982.081, 2952.671 983.121, 3073.750 989.633 L 3086 990.292 3086 971.646 C 3086 953.478, 3085.947 953, 3083.937 953 C 3082.803 953, 3075.265 952.524, 3067.187 951.943 C 2996.704 946.869, 2959.061 926.877, 2945.849 887.500 L 2943.500 880.500 2943.238 648.250 L 2942.975 416 3034.988 416 L 3127 416 3127 398 L 3127 380 3034.930 380 L 2942.861 380 2943.265 288.250 C 2943.609 210.302, 2943.924 194.319, 2945.361 182 C 2952.481 120.955, 2964.547 87.292, 2987.160 65.391 C 3004.795 48.310, 3025.509 39.582, 3054.670 36.946 C 3068.348 35.709, 3078.884 36.203, 3091 38.648 C 3116.571 43.809, 3139.512 61.693, 3137.717 75.070 C 3137.385 77.546, 3134.242 83.907, 3129.227 92.251 C 3124.847 99.538, 3120.359 107.975, 3119.253 111 C 3114.708 123.429, 3114.055 137.976, 3117.462 150.869 C 3122.092 168.384, 3135.776 181.841, 3153.703 186.511 C 3156.848 187.330, 3163.731 188, 3169 188 C 3185.450 188, 3197.391 183.618, 3206.894 174.093 C 3216.697 164.268, 3221.969 151.168, 3223.450 132.955 C 3224.264 122.952, 3222.754 107.315, 3219.906 96.244 C 3217.369 86.385, 3208.565 68.429, 3202.093 59.914 C 3194.946 50.512, 3178.862 35.444, 3168.969 28.884 C 3146.503 13.985, 3121.802 5.205, 3092.030 1.537 C 3076.980 -0.318, 3047.959 -0.322, 3032.665 1.527 M 2537 103.507 C 2524.112 106.649, 2511.365 114.401, 2499.384 126.383 C 2489.462 136.306, 2482.125 147.325, 2478.916 157.124 C 2476.910 163.249, 2476.509 166.451, 2476.551 176 C 2476.586 184.015, 2477.143 189.318, 2478.389 193.500 C 2484.049 212.491, 2497.212 225.255, 2515.603 229.584 C 2520.757 230.798, 2525.407 231.079, 2534 230.698 C 2546.871 230.127, 2554.341 228.109, 2564.930 222.342 C 2582.195 212.939, 2599.104 194.932, 2605.539 179.096 C 2611.904 163.432, 2611.041 143.492, 2603.340 128.270 C 2597.358 116.448, 2583.614 106.678, 2568.500 103.504 C 2559.914 101.702, 2544.401 101.703, 2537 103.507 M 141 187.433 C 141 192.529, 135.804 218.089, 131.983 231.787 C 123.235 263.150, 109.978 290.549, 91.720 315 C 83.244 326.350, 64.600 345.713, 53.500 354.694 C 42.262 363.785, 25.230 374.915, 11.604 382.072 L 0 388.167 0 402.071 L 0 415.974 35.245 416.237 L 70.491 416.500 70.257 423.500 C 70.128 427.350, 67.686 520.725, 64.830 631 C 60.151 811.669, 59.754 833.627, 60.819 853 C 61.469 864.825, 62.706 879.225, 63.567 885 C 74.491 958.232, 106.071 991.887, 172 1000.559 C 189.014 1002.797, 220.585 1002.112, 237.178 999.146 C 291.877 989.368, 336.524 955.553, 359.586 906.435 C 364.951 895.009, 371.301 876.886, 370.277 875.925 C 369.665 875.352, 358.888 870.770, 345.303 865.308 C 344.584 865.019, 342.243 868.546, 339.428 874.164 C 330.414 892.152, 320.912 904.638, 309 914.146 C 301.662 920.003, 287.468 927.093, 278.500 929.381 C 268.135 932.025, 254.161 933.268, 243.066 932.533 C 213.016 930.542, 192.325 918.807, 182.180 898 C 173.595 880.391, 169.630 858.800, 167.843 819.917 C 166.831 797.913, 167.211 775.571, 171.458 606.917 C 174.067 503.288, 176.367 417.938, 176.570 417.250 C 176.860 416.263, 193.906 416, 257.469 416 L 338 416 338 398 L 338 380 257.250 380 L 176.500 380.001 178.642 298.250 C 179.821 253.288, 180.999 209.412, 181.261 200.750 L 181.737 185 161.369 185 L 141 185 141 187.433 M 658.500 343.584 C 656.850 343.812, 651.225 344.478, 646 345.064 C 630.278 346.826, 612.437 350.863, 595 356.605 C 537.385 375.576, 482.725 419.107, 462.030 462.500 C 453.695 479.977, 449.362 500.288, 450.394 517.039 C 451.658 537.546, 459.545 552.205, 472.802 558.692 C 477.329 560.907, 480.124 561.500, 487.550 561.825 C 494.197 562.116, 498.328 561.759, 502.606 560.525 C 516.088 556.635, 525.889 549.436, 533.797 537.611 C 547.115 517.699, 550.715 497.470, 547.610 460 C 546.721 449.275, 545.470 437.154, 544.830 433.064 L 543.666 425.628 547.583 422.225 C 554.229 416.450, 568.916 407.059, 579.966 401.517 C 598.298 392.323, 617.244 386.554, 639.500 383.389 C 655.893 381.057, 685.168 381.036, 697.900 383.346 C 743.297 391.584, 766.002 416.066, 776.405 468 C 782.037 496.117, 782.502 504.107, 782.478 572.378 L 782.456 635.256 779.129 638.034 C 774.322 642.047, 762.427 645.525, 738.187 650.006 C 726.465 652.173, 706.665 656.227, 694.187 659.016 C 580.369 684.451, 505.945 710.611, 471.086 737.434 C 467.953 739.844, 462.076 745.120, 458.024 749.158 C 429.579 777.511, 415.512 817.367, 417.318 864.500 C 418.287 889.804, 422.385 907.817, 431.423 926.500 C 451.560 968.127, 489.411 993.873, 540.389 1000.618 C 556.628 1002.766, 592.784 1002.015, 611.500 999.141 C 635.458 995.461, 654.753 990.035, 674.943 981.301 C 707.274 967.314, 738.724 943.961, 765.476 914.077 C 771.912 906.887, 775.643 903.424, 776.073 904.240 C 776.438 904.933, 777.033 908.536, 777.396 912.246 C 778.904 927.683, 786.639 949.285, 795.095 961.678 C 799.865 968.668, 809.576 978.567, 816.589 983.587 C 828.699 992.256, 846.196 998.753, 863.719 1001.087 C 876.324 1002.766, 903.867 1001.701, 916.199 999.058 C 934.325 995.174, 950.335 988.502, 965 978.721 C 974.814 972.176, 994.795 951.947, 1003.076 940.172 C 1009.397 931.184, 1022.633 908.241, 1021.871 907.593 C 1020.691 906.590, 1000.490 895, 999.921 895 C 999.544 895, 997.321 897.937, 994.982 901.528 C 986.511 914.530, 973.913 924.893, 961.690 928.913 C 944.088 934.702, 923.611 933.861, 909.500 926.769 C 903.180 923.593, 897.055 918.125, 893.378 912.376 C 888.699 905.063, 884.376 891.417, 882.962 879.500 C 881.523 867.373, 881.934 842.978, 886.132 691.500 C 890.310 540.758, 889.748 515.525, 881.382 478.001 C 873.312 441.805, 858.758 412.769, 838.588 392.626 C 825.305 379.361, 809.370 368.904, 790.420 361.017 C 773.405 353.936, 753.453 348.887, 729 345.474 C 718.078 343.949, 665.949 342.552, 658.500 343.584 M 1234.500 344.089 C 1211.275 348.057, 1126.558 356.888, 1077 360.508 C 1057.475 361.934, 1039.588 363.331, 1037.250 363.612 L 1033 364.123 1033 382.468 L 1033 400.813 1042.250 401.353 C 1096.924 404.544, 1115.092 407.596, 1125.126 415.277 C 1133.530 421.711, 1138.818 435.658, 1140.964 457.049 C 1141.803 465.412, 1142.011 526.212, 1141.736 682.500 C 1141.400 872.821, 1141.183 897.405, 1139.772 904.677 C 1135.956 924.333, 1132.013 931.728, 1122.968 936.192 C 1112.030 941.590, 1086.024 946.984, 1054 950.497 C 1046.025 951.372, 1038.037 952.313, 1036.250 952.589 L 1033 953.091 1033 971.692 L 1033 990.294 1044.250 989.641 C 1177.330 981.923, 1185.634 981.849, 1280.898 987.531 C 1303.668 988.889, 1323.580 990, 1325.148 990 L 1328 990 1328 971.579 L 1328 953.159 1325.250 952.638 C 1323.737 952.351, 1318.450 951.596, 1313.500 950.960 C 1299.147 949.116, 1281.155 945.078, 1272.589 941.778 C 1258.817 936.472, 1254.107 929.557, 1250.428 909.239 C 1247.540 893.287, 1246.864 853.224, 1247.251 721 C 1247.595 603.296, 1247.802 589.498, 1249.354 580.283 C 1257.447 532.242, 1281.999 488.922, 1323.868 448.806 C 1343.018 430.457, 1361.400 417.529, 1383.500 406.866 C 1403.705 397.116, 1421.860 392.161, 1445.500 389.944 C 1470.826 387.568, 1499.007 391.988, 1517.500 401.235 C 1530.050 407.511, 1543.994 419.708, 1551.929 431.351 C 1566.607 452.888, 1575.854 487.104, 1578.993 531.500 C 1580.368 550.958, 1580.335 877.949, 1578.956 892.500 C 1576.998 913.157, 1573.232 925.924, 1567.193 932.379 C 1563.655 936.162, 1556.012 939.512, 1543.977 942.554 C 1532.559 945.440, 1508.400 949.332, 1492 950.927 C 1485.675 951.542, 1479.037 952.280, 1477.250 952.568 L 1474 953.091 1474 971.545 L 1474 990 1477.750 989.990 C 1479.813 989.985, 1487.800 989.542, 1495.500 989.005 C 1524.439 986.990, 1563.542 984.992, 1594.332 983.955 C 1635.295 982.576, 1667.682 983.718, 1755.250 989.628 L 1765 990.286 1765 971.688 L 1765 953.091 1761.750 952.576 C 1759.963 952.292, 1753.550 951.347, 1747.500 950.474 C 1725.477 947.297, 1707.595 941.980, 1700.349 936.453 C 1694.689 932.135, 1690.835 922.724, 1687.877 906 C 1687.058 901.368, 1686.528 847.926, 1686.031 720 C 1685.307 533.690, 1685.351 535.536, 1680.900 504.500 C 1676.772 475.712, 1669.394 449.767, 1659.458 429.106 C 1636.598 381.564, 1597.692 355.580, 1534.797 345.846 C 1522.514 343.945, 1516.275 343.625, 1490.500 343.571 C 1466.427 343.521, 1458.129 343.865, 1448.500 345.314 C 1401.746 352.350, 1366.288 366.606, 1331.763 392.250 C 1316.407 403.656, 1289.021 430.868, 1276.160 447.500 C 1268.754 457.078, 1255.409 476.361, 1246.309 490.632 C 1245.381 492.087, 1245.105 475.979, 1245.059 417.750 L 1245 343 1242.250 343.118 C 1240.737 343.182, 1237.250 343.620, 1234.500 344.089 M 1834 435.500 L 1834 517 1847.845 517 L 1861.691 517 1862.887 507.125 C 1866.798 474.857, 1876.380 447.051, 1889.433 430.088 C 1906.328 408.130, 1933.196 398.536, 1993.500 392.925 C 2000.772 392.249, 2042.087 391.609, 2098.357 391.302 C 2178.827 390.864, 2191.099 390.988, 2190.357 392.230 C 2189.886 393.019, 2103.887 526.219, 1999.250 688.231 C 1835.989 941.009, 1809 983.308, 1809 986.398 L 1809 990 2073.500 990 L 2338 990 2338 896 L 2338 802 2333.656 802 C 2331.266 802, 2324.516 802.293, 2318.656 802.652 L 2308 803.304 2308 810.597 C 2308 814.609, 2307.516 823.653, 2306.925 830.696 C 2303.491 871.588, 2293.626 902.022, 2278.325 918.930 C 2263.025 935.837, 2233.632 945.636, 2183.311 950.605 C 2169.197 951.999, 2149.361 952.337, 2059.667 952.715 L 1952.834 953.164 1956.259 947.832 C 1958.143 944.899, 2044.687 811.775, 2148.579 652 C 2299.156 420.426, 2337.547 360.739, 2337.841 357.750 L 2338.210 354 2086.105 354 L 1834 354 1834 435.500 M 758 681.026 C 672.819 699.089, 616.717 715.627, 582.500 732.759 C 563.822 742.110, 551.942 751.249, 541.507 764.292 C 523.722 786.519, 516.036 814.779, 519.002 847.027 C 520.300 861.131, 523.405 874.307, 528.073 885.520 C 536.915 906.761, 556.162 926.851, 576.506 936.075 C 606.128 949.506, 648.160 947.143, 684.770 929.986 C 694.583 925.388, 709.478 915.786, 720 907.276 C 735.500 894.740, 757.402 870.477, 771.251 850.500 L 776.797 842.500 778.770 759.500 C 779.855 713.850, 780.688 676.445, 780.622 676.377 C 780.555 676.310, 770.375 678.402, 758 681.026" fill="url(#g)" fill-rule="evenodd"/></svg>